<svg id="Camada_1" data-name="Camada 1" xmlns="http://www.w3.org/2000/svg" xmlns:xlink="http://www.w3.org/1999/xlink" viewBox="0 0 486 489"><defs><style>.cls-1{fill:url(#Gradiente_sem_nome_26);}.cls-2{fill:url(#Gradiente_sem_nome_26-2);}</style><linearGradient id="Gradiente_sem_nome_26" x1="-25.36" y1="29.93" x2="423.69" y2="478.98" gradientUnits="userSpaceOnUse"><stop offset="0" stop-color="#ff4c1d"/><stop offset="1" stop-color="#dd1a5d" stop-opacity="0.96"/></linearGradient><linearGradient id="Gradiente_sem_nome_26-2" x1="62.52" y1="-45.65" x2="494.51" y2="386.35" xlink:href="#Gradiente_sem_nome_26"/></defs><path class="cls-1" d="M311,126c-.67,0-1.33,0-2,0v0H77l46,76s7.67,14.57,23.55,21.9a44.41,44.41,0,0,0,18.79,4.1H309a85,85,0,0,1,0,170H215.34C186.68,398,173,424,173,424l-5.43,9L127,500H311A186.85,186.85,0,0,0,498,313C498,209.72,414.28,126,311,126Z" transform="translate(-12 -11)"/><path class="cls-2" d="M236.5,114a51.5,51.5,0,0,0,0-103H12L62,91s14.32,23,38.66,23Z" transform="translate(-12 -11)"/></svg>